<?xml version="1.0" standalone="no"?>
<!DOCTYPE svg PUBLIC "-//W3C//DTD SVG 20010904//EN"
 "http://www.w3.org/TR/2001/REC-SVG-20010904/DTD/svg10.dtd">
<svg version="1.0" xmlns="http://www.w3.org/2000/svg"
 width="270.000000pt" height="287.000000pt" viewBox="0 0 270.000000 287.000000"
 preserveAspectRatio="xMidYMid meet">

<g transform="translate(0.000000,287.000000) scale(0.100000,-0.100000)"
fill="#670000" stroke="none">
<path d="M0 1435 l0 -1435 1350 0 1350 0 0 1435 0 1435 -1350 0 -1350 0 0
-1435z m1940 1050 c10 -12 10 -22 -1 -47 -18 -44 -172 -195 -297 -291 l-102
-79 48 -61 c57 -72 95 -127 89 -127 -2 0 -34 41 -71 90 -37 50 -69 90 -71 90
-13 0 -320 -215 -317 -222 1 -5 -2 -7 -7 -3 -6 3 -54 -21 -108 -53 -54 -32
-117 -69 -140 -82 -39 -21 -41 -24 -31 -52 6 -16 8 -31 5 -34 -3 -3 -8 8 -12
25 -4 17 -9 31 -11 31 -2 0 -63 -29 -134 -65 -125 -63 -130 -66 -125 -93 5
-25 5 -25 -4 -4 -6 12 -14 22 -18 22 -7 0 -99 -34 -178 -65 -27 -11 -41 -14
-102 -21 -123 -15 -152 48 -76 169 33 53 36 46 7 -18 -15 -33 -24 -68 -22 -87
l3 -33 55 1 c85 2 110 16 111 61 l2 38 6 -36 6 -36 93 40 c60 26 92 45 93 56
0 10 2 11 6 3 15 -38 811 451 1093 672 36 28 93 77 128 110 85 81 83 109 -9
100 -33 -3 -39 -2 -24 5 32 15 101 13 115 -4z m-320 -140 c0 -3 -22 6 -50 20
-27 14 -50 28 -50 30 0 3 23 -6 50 -20 28 -14 50 -28 50 -30z m-590 15 c-8 -5
-19 -10 -25 -10 -5 0 -3 5 5 10 8 5 20 10 25 10 6 0 3 -5 -5 -10z m-110 -51
c-40 -22 -92 -54 -115 -71 l-40 -30 35 32 c35 32 167 110 185 110 6 0 -24 -19
-65 -41z m337 19 c-3 -8 -6 -5 -6 6 -1 11 2 17 5 13 3 -3 4 -12 1 -19z m88
-78 c38 -38 67 -70 64 -70 -2 0 -36 32 -74 70 -38 39 -67 70 -64 70 2 0 36
-31 74 -70z m-227 -64 c-21 -18 -38 -38 -38 -45 0 -6 16 -43 35 -81 19 -38 35
-73 34 -77 0 -5 -20 30 -44 77 l-44 85 42 37 c23 21 44 37 47 37 3 0 -12 -15
-32 -33z m-358 21 c0 -2 -12 -14 -27 -28 l-28 -24 24 28 c23 25 31 32 31 24z
m1153 -141 c20 -27 37 -52 37 -55 0 -7 -10 4 -62 74 -25 34 -53 67 -63 75 -9
7 -21 23 -27 34 -14 26 64 -61 115 -128z m-1006 28 c-3 -3 -12 -4 -19 -1 -8 3
-5 6 6 6 11 1 17 -2 13 -5z m1361 -27 c4 -36 -53 -113 -142 -192 -65 -57 -65
-58 -51 -86 8 -15 15 -32 15 -36 -1 -4 -9 6 -18 24 l-17 32 -99 -80 c-54 -44
-107 -85 -117 -92 -17 -12 -16 -17 12 -97 16 -46 28 -87 27 -92 -2 -5 -16 29
-31 76 -16 47 -32 86 -37 86 -4 0 -34 -19 -66 -43 -33 -24 -111 -79 -174 -122
-63 -43 -116 -80 -118 -81 -2 -1 6 -21 18 -44 12 -23 20 -44 17 -46 -2 -2 -12
14 -22 36 -10 22 -22 40 -26 40 -5 0 -62 -33 -126 -74 -65 -40 -128 -78 -140
-85 -13 -6 -23 -17 -23 -22 0 -6 23 -43 51 -81 28 -39 46 -67 40 -64 -5 4 -32
37 -58 75 l-48 68 -110 -63 c-61 -35 -114 -65 -120 -67 -13 -5 33 -65 124
-162 l76 -80 -73 70 c-41 39 -89 91 -108 117 l-35 47 -122 -60 c-67 -33 -121
-66 -119 -72 3 -13 56 -65 137 -135 31 -27 37 -35 16 -21 -18 12 -65 53 -104
90 l-71 68 -116 -39 c-170 -58 -250 -53 -250 16 0 25 36 104 64 139 9 11 3 -6
-14 -39 -33 -64 -38 -107 -15 -126 35 -29 216 35 442 158 67 36 119 70 116 75
-3 6 -1 7 5 3 9 -6 143 66 231 123 12 8 13 15 3 38 l-13 28 20 -25 19 -24 64
39 c204 126 230 145 224 170 -4 15 0 27 12 36 15 13 16 12 4 -3 -9 -11 -10
-22 -4 -33 7 -14 35 2 183 101 96 64 179 123 185 130 6 8 15 14 20 14 14 0
306 225 365 282 60 58 95 105 85 115 -3 3 -23 10 -43 14 l-38 7 45 -1 c41 -2
45 -4 48 -30z m-1404 15 c-7 -4 -14 -16 -17 -27 -4 -15 -5 -14 -6 8 -1 20 4
27 17 27 11 0 13 -3 6 -8z m1303 2 c-3 -3 -12 -4 -19 -1 -8 3 -5 6 6 6 11 1
17 -2 13 -5z m-1310 -101 c-3 -10 -5 -2 -5 17 0 19 2 27 5 18 2 -10 2 -26 0
-35z m-240 -45 c-3 -7 -5 -2 -5 12 0 14 2 19 5 13 2 -7 2 -19 0 -25z m250 -15
c-3 -10 -5 -4 -5 12 0 17 2 24 5 18 2 -7 2 -21 0 -30z m-260 -115 c-2 -24 -4
-7 -4 37 0 44 2 63 4 43 2 -21 2 -57 0 -80z m-111 -9 c-14 -35 -25 -59 -26
-52 0 15 42 124 47 120 2 -2 -8 -33 -21 -68z m803 -126 c23 -46 39 -83 36 -83
-5 0 -85 156 -85 166 0 12 7 1 49 -83z m820 -3 c0 -10 -3 -8 -9 5 -12 27 -12
43 0 25 5 -8 9 -22 9 -30z m-1481 -34 c-7 -8 -15 -12 -17 -11 -5 6 10 25 20
25 5 0 4 -6 -3 -14z m1500 -41 c0 -16 -2 -15 -8 5 -11 34 -11 60 0 35 5 -11 8
-29 8 -40z m282 -33 c18 -15 21 -24 15 -50 -16 -76 -165 -228 -382 -391 -87
-65 -102 -80 -104 -106 -1 -24 -3 -26 -6 -7 -2 12 -6 22 -8 22 -2 0 -39 -24
-82 -54 -118 -81 -347 -225 -445 -281 -75 -41 -86 -51 -75 -63 10 -13 9 -14
-8 -5 -16 9 -30 5 -77 -20 -32 -18 -58 -35 -58 -39 0 -4 10 -9 23 -11 12 -2 6
-3 -14 -1 -29 3 -65 -10 -170 -60 -147 -71 -279 -119 -312 -114 -12 2 -23 11
-25 20 -4 22 31 74 61 89 16 9 14 3 -11 -27 -38 -46 -42 -68 -9 -59 43 12 233
107 374 187 l143 80 -23 20 -22 19 27 -16 c27 -17 29 -16 115 36 48 29 90 54
92 55 2 2 -14 24 -35 50 -69 81 -67 77 -37 105 l28 24 -24 -27 -23 -27 48 -53
c27 -29 50 -55 52 -57 3 -6 38 14 135 76 l67 43 -16 31 c-8 17 -13 33 -11 35
2 3 10 -9 17 -26 7 -16 16 -30 21 -30 4 0 84 50 176 112 394 262 593 432 581
495 -2 10 -19 23 -38 30 -32 11 -33 12 -9 12 15 1 37 -7 49 -17z m-273 -24
c-3 -7 -5 -2 -5 12 0 14 2 19 5 13 2 -7 2 -19 0 -25z m-1167 -33 c0 -5 -5 -3
-10 5 -5 8 -10 20 -10 25 0 6 5 3 10 -5 5 -8 10 -19 10 -25z m1177 -17 c-3 -7
-5 -2 -5 12 0 14 2 19 5 13 2 -7 2 -19 0 -25z m-1157 -33 c0 -5 -5 -3 -10 5
-5 8 -10 20 -10 25 0 6 5 3 10 -5 5 -8 10 -19 10 -25z m-312 -50 c0 -5 -6 4
-13 20 -8 17 -14 37 -14 45 0 8 7 -1 14 -20 7 -19 13 -39 13 -45z m1479 18
c-3 -10 -5 -4 -5 12 0 17 2 24 5 18 2 -7 2 -21 0 -30z m-280 -15 c-3 -8 -6 -5
-6 6 -1 11 2 17 5 13 3 -3 4 -12 1 -19z m-1440 -40 c-2 -13 -4 -5 -4 17 -1 22
1 32 4 23 2 -10 2 -28 0 -40z m263 -13 c0 -5 -5 -3 -10 5 -5 8 -10 20 -10 25
0 6 5 3 10 -5 5 -8 10 -19 10 -25z m-253 -52 c-3 -10 -5 -4 -5 12 0 17 2 24 5
18 2 -7 2 -21 0 -30z m273 2 c0 -5 -5 -3 -10 5 -5 8 -10 20 -10 25 0 6 5 3 10
-5 5 -8 10 -19 10 -25z m-263 -47 c-3 -8 -6 -5 -6 6 -1 11 2 17 5 13 3 -3 4
-12 1 -19z m1546 -55 c-7 -2 -19 -2 -25 0 -7 3 -2 5 12 5 14 0 19 -2 13 -5z
m-76 -60 c-3 -10 -5 -4 -5 12 0 17 2 24 5 18 2 -7 2 -21 0 -30z m230 -30 c-3
-10 -5 -4 -5 12 0 17 2 24 5 18 2 -7 2 -21 0 -30z m-1314 2 c-3 -9 -8 -14 -10
-11 -3 3 -2 9 2 15 9 16 15 13 8 -4z m762 -17 c-11 -6 -23 -16 -27 -22 -5 -8
-8 -7 -8 1 0 12 28 32 45 32 6 0 1 -5 -10 -11z m542 -40 c-3 -7 -5 -2 -5 12 0
14 2 19 5 13 2 -7 2 -19 0 -25z m-538 -53 c0 -5 -6 1 -14 15 -8 14 -14 30 -14
35 0 6 6 -1 14 -15 8 -14 14 -29 14 -35z m528 13 c-3 -8 -6 -5 -6 6 -1 11 2
17 5 13 3 -3 4 -12 1 -19z m-10 -40 c-3 -8 -6 -5 -6 6 -1 11 2 17 5 13 3 -3 4
-12 1 -19z m-204 -165 c-13 -2 -35 -2 -50 0 -16 2 -5 4 22 4 28 0 40 -2 28 -4z
m-136 -19 c-3 -3 -12 -4 -19 -1 -8 3 -5 6 6 6 11 1 17 -2 13 -5z m-84 -33
c-29 -16 -72 -43 -95 -61 l-43 -32 35 32 c37 33 128 90 145 90 6 0 -14 -13
-42 -29z m-323 -167 c0 -2 -9 0 -20 6 -11 6 -20 13 -20 16 0 2 9 0 20 -6 11
-6 20 -13 20 -16z m-82 -51 c-10 -2 -26 -2 -35 0 -10 3 -2 5 17 5 19 0 27 -2
18 -5z"/>
</g>
</svg>
